{
    "asset" : {
        "generator" : "Khronos glTF Blender I/O v1.8.19",
        "version" : "2.0"
    },
    "scene" : 0,
    "scenes" : [
        {
            "name" : "Scene",
            "nodes" : [
                0
            ]
        }
    ],
    "nodes" : [
        {
            "mesh" : 0,
            "name" : "FIlmExport.014",
            "rotation" : [
                0.7071068286895752,
                0,
                0,
                0.7071067094802856
            ],
            "scale" : [
                0.010004323907196522,
                0.010004323907196522,
                0.010004323907196522
            ],
            "translation" : [
                0,
                3.7684144973754883,
                0
            ]
        }
    ],
    "materials" : [
        {
            "doubleSided" : true,
            "name" : "Main",
            "normalTexture" : {
                "index" : 0
            },
            "pbrMetallicRoughness" : {
                "baseColorTexture" : {
                    "index" : 1
                },
                "metallicRoughnessTexture" : {
                    "index" : 2
                }
            }
        },
        {
            "doubleSided" : true,
            "emissiveFactor" : [
                1,
                1,
                1
            ],
            "name" : "Light",
            "pbrMetallicRoughness" : {
                "metallicFactor" : 0,
                "roughnessFactor" : 0.5
            }
        },
        {
            "doubleSided" : true,
            "emissiveFactor" : [
                1,
                1,
                1
            ],
            "name" : "Light2",
            "pbrMetallicRoughness" : {
                "metallicFactor" : 0,
                "roughnessFactor" : 0.5
            }
        },
        {
            "doubleSided" : true,
            "name" : "Metal",
            "pbrMetallicRoughness" : {}
        },
        {
            "doubleSided" : true,
            "name" : "Copper",
            "pbrMetallicRoughness" : {}
        },
        {
            "doubleSided" : true,
            "name" : "Silver Metal",
            "pbrMetallicRoughness" : {
                "roughnessFactor" : 0.20454545319080353
            }
        }
    ],
    "meshes" : [
        {
            "name" : "FIlmExport.241",
            "primitives" : [
                {
                    "attributes" : {
                        "POSITION" : 0,
                        "NORMAL" : 1,
                        "TEXCOORD_0" : 2
                    },
                    "indices" : 3,
                    "material" : 0
                },
                {
                    "attributes" : {
                        "POSITION" : 4,
                        "NORMAL" : 5,
                        "TEXCOORD_0" : 6
                    },
                    "indices" : 7,
                    "material" : 1
                },
                {
                    "attributes" : {
                        "POSITION" : 8,
                        "NORMAL" : 9,
                        "TEXCOORD_0" : 10
                    },
                    "indices" : 11,
                    "material" : 2
                },
                {
                    "attributes" : {
                        "POSITION" : 12,
                        "NORMAL" : 13,
                        "TEXCOORD_0" : 14
                    },
                    "indices" : 15,
                    "material" : 3
                },
                {
                    "attributes" : {
                        "POSITION" : 16,
                        "NORMAL" : 17,
                        "TEXCOORD_0" : 18
                    },
                    "indices" : 19,
                    "material" : 4
                },
                {
                    "attributes" : {
                        "POSITION" : 20,
                        "NORMAL" : 21,
                        "TEXCOORD_0" : 22
                    },
                    "indices" : 23,
                    "material" : 5
                }
            ]
        }
    ],
    "textures" : [
        {
            "sampler" : 0,
            "source" : 0
        },
        {
            "sampler" : 0,
            "source" : 1
        },
        {
            "sampler" : 0,
            "source" : 2
        }
    ],
    "images" : [
        {
            "mimeType" : "image/png",
            "name" : "Test_Height",
            "uri" : "RobotTextures/Test_Height.png"
        },
        {
            "mimeType" : "image/png",
            "name" : "Test_Base_color",
            "uri" : "RobotTextures/Test_Base_color.png"
        },
        {
            "mimeType" : "image/png",
            "name" : "Test_Metallic-Test_Roughness",
            "uri" : "RobotTextures/Test_Metallic-Test_Roughness.png"
        }
    ],
    "accessors" : [
        {
            "bufferView" : 0,
            "componentType" : 5126,
            "count" : 174759,
            "max" : [
                287.6787109375,
                95.59815979003906,
                1216.5948486328125
            ],
            "min" : [
                -287.6787414550781,
                -263.216796875,
                -103.15386962890625
            ],
            "type" : "VEC3"
        },
        {
            "bufferView" : 1,
            "componentType" : 5126,
            "count" : 174759,
            "type" : "VEC3"
        },
        {
            "bufferView" : 2,
            "componentType" : 5126,
            "count" : 174759,
            "type" : "VEC2"
        },
        {
            "bufferView" : 3,
            "componentType" : 5125,
            "count" : 420249,
            "type" : "SCALAR"
        },
        {
            "bufferView" : 4,
            "componentType" : 5126,
            "count" : 1144,
            "max" : [
                56.257568359375,
                9.809099197387695,
                47.112701416015625
            ],
            "min" : [
                -56.257568359375,
                -54.56578063964844,
                -77.61383056640625
            ],
            "type" : "VEC3"
        },
        {
            "bufferView" : 5,
            "componentType" : 5126,
            "count" : 1144,
            "type" : "VEC3"
        },
        {
            "bufferView" : 6,
            "componentType" : 5126,
            "count" : 1144,
            "type" : "VEC2"
        },
        {
            "bufferView" : 7,
            "componentType" : 5123,
            "count" : 3234,
            "type" : "SCALAR"
        },
        {
            "bufferView" : 8,
            "componentType" : 5126,
            "count" : 12,
            "max" : [
                141.171630859375,
                -13.224617004394531,
                160.86514282226562
            ],
            "min" : [
                -141.171630859375,
                -56.01512908935547,
                106.92919921875
            ],
            "type" : "VEC3"
        },
        {
            "bufferView" : 9,
            "componentType" : 5126,
            "count" : 12,
            "type" : "VEC3"
        },
        {
            "bufferView" : 10,
            "componentType" : 5126,
            "count" : 12,
            "type" : "VEC2"
        },
        {
            "bufferView" : 11,
            "componentType" : 5123,
            "count" : 24,
            "type" : "SCALAR"
        },
        {
            "bufferView" : 12,
            "componentType" : 5126,
            "count" : 276368,
            "max" : [
                287.18170166015625,
                71.36044311523438,
                1211.9515380859375
            ],
            "min" : [
                -287.1817932128906,
                -208.89898681640625,
                -129.861572265625
            ],
            "type" : "VEC3"
        },
        {
            "bufferView" : 13,
            "componentType" : 5126,
            "count" : 276368,
            "type" : "VEC3"
        },
        {
            "bufferView" : 14,
            "componentType" : 5126,
            "count" : 276368,
            "type" : "VEC2"
        },
        {
            "bufferView" : 15,
            "componentType" : 5125,
            "count" : 1017150,
            "type" : "SCALAR"
        },
        {
            "bufferView" : 16,
            "componentType" : 5126,
            "count" : 138849,
            "max" : [
                285.1347351074219,
                37.82986831665039,
                1203.2943115234375
            ],
            "min" : [
                -285.13482666015625,
                -211.49258422851562,
                54.25478744506836
            ],
            "type" : "VEC3"
        },
        {
            "bufferView" : 17,
            "componentType" : 5126,
            "count" : 138849,
            "type" : "VEC3"
        },
        {
            "bufferView" : 18,
            "componentType" : 5126,
            "count" : 138849,
            "type" : "VEC2"
        },
        {
            "bufferView" : 19,
            "componentType" : 5125,
            "count" : 591744,
            "type" : "SCALAR"
        },
        {
            "bufferView" : 20,
            "componentType" : 5126,
            "count" : 2796,
            "max" : [
                175.35919189453125,
                -6.534093856811523,
                598.1565551757812
            ],
            "min" : [
                -175.35919189453125,
                -150.68310546875,
                34.03969192504883
            ],
            "type" : "VEC3"
        },
        {
            "bufferView" : 21,
            "componentType" : 5126,
            "count" : 2796,
            "type" : "VEC3"
        },
        {
            "bufferView" : 22,
            "componentType" : 5126,
            "count" : 2796,
            "type" : "VEC2"
        },
        {
            "bufferView" : 23,
            "componentType" : 5123,
            "count" : 8004,
            "type" : "SCALAR"
        }
    ],
    "bufferViews" : [
        {
            "buffer" : 0,
            "byteLength" : 2097108,
            "byteOffset" : 0
        },
        {
            "buffer" : 0,
            "byteLength" : 2097108,
            "byteOffset" : 2097108
        },
        {
            "buffer" : 0,
            "byteLength" : 1398072,
            "byteOffset" : 4194216
        },
        {
            "buffer" : 0,
            "byteLength" : 1680996,
            "byteOffset" : 5592288
        },
        {
            "buffer" : 0,
            "byteLength" : 13728,
            "byteOffset" : 7273284
        },
        {
            "buffer" : 0,
            "byteLength" : 13728,
            "byteOffset" : 7287012
        },
        {
            "buffer" : 0,
            "byteLength" : 9152,
            "byteOffset" : 7300740
        },
        {
            "buffer" : 0,
            "byteLength" : 6468,
            "byteOffset" : 7309892
        },
        {
            "buffer" : 0,
            "byteLength" : 144,
            "byteOffset" : 7316360
        },
        {
            "buffer" : 0,
            "byteLength" : 144,
            "byteOffset" : 7316504
        },
        {
            "buffer" : 0,
            "byteLength" : 96,
            "byteOffset" : 7316648
        },
        {
            "buffer" : 0,
            "byteLength" : 48,
            "byteOffset" : 7316744
        },
        {
            "buffer" : 0,
            "byteLength" : 3316416,
            "byteOffset" : 7316792
        },
        {
            "buffer" : 0,
            "byteLength" : 3316416,
            "byteOffset" : 10633208
        },
        {
            "buffer" : 0,
            "byteLength" : 2210944,
            "byteOffset" : 13949624
        },
        {
            "buffer" : 0,
            "byteLength" : 4068600,
            "byteOffset" : 16160568
        },
        {
            "buffer" : 0,
            "byteLength" : 1666188,
            "byteOffset" : 20229168
        },
        {
            "buffer" : 0,
            "byteLength" : 1666188,
            "byteOffset" : 21895356
        },
        {
            "buffer" : 0,
            "byteLength" : 1110792,
            "byteOffset" : 23561544
        },
        {
            "buffer" : 0,
            "byteLength" : 2366976,
            "byteOffset" : 24672336
        },
        {
            "buffer" : 0,
            "byteLength" : 33552,
            "byteOffset" : 27039312
        },
        {
            "buffer" : 0,
            "byteLength" : 33552,
            "byteOffset" : 27072864
        },
        {
            "buffer" : 0,
            "byteLength" : 22368,
            "byteOffset" : 27106416
        },
        {
            "buffer" : 0,
            "byteLength" : 16008,
            "byteOffset" : 27128784
        }
    ],
    "samplers" : [
        {
            "magFilter" : 9729,
            "minFilter" : 9987
        }
    ],
    "buffers" : [
        {
            "byteLength" : 27144792,
            "uri" : "FilmRobot.bin"
        }
    ]
}
